# Blender v2.76 (sub 0) OBJ File: 'torso2.blend'
# www.blender.org
mtllib torso.mtl
o Cylinder_Cylinder.006
v 0.000000 0.021544 -0.387269
v 0.000000 1.109722 -0.387269
v 0.081778 0.021544 -0.379828
v 0.081778 1.109722 -0.379828
v 0.160413 0.021544 -0.357790
v 0.160413 1.109722 -0.357790
v 0.232884 0.021544 -0.322002
v 0.232884 1.109722 -0.322002
v 0.296405 0.021544 -0.273840
v 0.296405 1.109722 -0.273840
v 0.348536 0.021544 -0.215155
v 0.348536 1.109722 -0.215155
v 0.387272 0.021544 -0.148201
v 0.387272 1.109722 -0.148201
v 0.411126 0.021544 -0.075552
v 0.411126 1.109722 -0.075552
v 0.419181 0.021544 -0.000000
v 0.419181 1.109722 -0.000000
v 0.411126 0.021544 0.075552
v 0.411126 1.109722 0.075552
v 0.387272 0.021544 0.148201
v 0.387272 1.109722 0.148201
v 0.348536 0.021544 0.215155
v 0.348536 1.109722 0.215155
v 0.296405 0.021544 0.273840
v 0.296405 1.109722 0.273840
v 0.232884 0.021544 0.322002
v 0.232884 1.109722 0.322002
v 0.160413 0.021544 0.357790
v 0.160413 1.109722 0.357790
v 0.081778 0.021544 0.379828
v 0.081778 1.109722 0.379828
v -0.000000 0.021544 0.387269
v -0.000000 1.109722 0.387269
v -0.081778 0.021544 0.379828
v -0.081778 1.109722 0.379828
v -0.160414 0.021544 0.357790
v -0.160414 1.109722 0.357790
v -0.232884 0.021544 0.322002
v -0.232884 1.109722 0.322002
v -0.296406 0.021544 0.273840
v -0.296406 1.109722 0.273840
v -0.348536 0.021544 0.215155
v -0.348536 1.109722 0.215155
v -0.387272 0.021544 0.148201
v -0.387272 1.109722 0.148201
v -0.411126 0.021544 0.075552
v -0.411126 1.109722 0.075552
v -0.419181 0.021544 -0.000000
v -0.419181 1.109722 -0.000000
v -0.411126 0.021544 -0.075553
v -0.411126 1.109722 -0.075553
v -0.387272 0.021544 -0.148202
v -0.387272 1.109722 -0.148202
v -0.348536 0.021544 -0.215155
v -0.348536 1.109722 -0.215155
v -0.296405 0.021544 -0.273841
v -0.296405 1.109722 -0.273841
v -0.232884 0.021544 -0.322003
v -0.232884 1.109722 -0.322003
v -0.160413 0.021544 -0.357790
v -0.160413 1.109722 -0.357790
v -0.081777 0.021544 -0.379828
v -0.081777 1.109722 -0.379828
vt 0.913832 0.348610
vt 0.913832 0.685096
vt 0.880851 0.685096
vt 0.880851 0.348610
vt 0.954896 0.348610
vt 0.954896 0.685096
vt 0.921914 0.685096
vt 0.921914 0.348610
vt 0.831706 0.348610
vt 0.831705 0.685096
vt 0.798724 0.685096
vt 0.798724 0.348610
vt 0.872769 0.004041
vt 0.872769 0.340528
vt 0.839787 0.340528
vt 0.839787 0.004041
vt 0.667452 0.004041
vt 0.667451 0.340528
vt 0.634470 0.340528
vt 0.634470 0.004041
vt 0.462112 0.348610
vt 0.462112 0.685097
vt 0.429131 0.685097
vt 0.429131 0.348610
vt 0.626388 0.004041
vt 0.626386 0.340528
vt 0.593405 0.340528
vt 0.593406 0.004041
vt 0.462119 0.004042
vt 0.462112 0.340528
vt 0.429131 0.340528
vt 0.429137 0.004041
vt 0.749579 0.348610
vt 0.749579 0.685096
vt 0.716597 0.685096
vt 0.716597 0.348610
vt 0.790642 0.004041
vt 0.790642 0.340528
vt 0.757661 0.340528
vt 0.757661 0.004041
vt 0.831706 0.004041
vt 0.831706 0.340528
vt 0.798724 0.340528
vt 0.798724 0.004041
vt 0.626387 0.348610
vt 0.626386 0.685097
vt 0.593405 0.685097
vt 0.593406 0.348610
vt 0.667452 0.348610
vt 0.667451 0.685097
vt 0.634470 0.685096
vt 0.634470 0.348610
vt 0.379972 0.348610
vt 0.379971 0.685097
vt 0.346990 0.685097
vt 0.346990 0.348610
vt 0.503188 0.004041
vt 0.503182 0.340528
vt 0.470201 0.340528
vt 0.470207 0.004041
vt 0.421049 0.004042
vt 0.421042 0.340528
vt 0.388060 0.340528
vt 0.388067 0.004041
vt 0.379978 0.004042
vt 0.379971 0.340528
vt 0.346990 0.340528
vt 0.346997 0.004041
vt 0.544258 0.004041
vt 0.544252 0.340528
vt 0.511270 0.340528
vt 0.511276 0.004041
vt 0.585323 0.004041
vt 0.585321 0.340528
vt 0.552340 0.340528
vt 0.552342 0.004041
vt 0.585322 0.348610
vt 0.585321 0.685097
vt 0.552340 0.685097
vt 0.552340 0.348610
vt 0.790642 0.348610
vt 0.790642 0.685096
vt 0.757661 0.685096
vt 0.757661 0.348610
vt 0.421035 0.348610
vt 0.421035 0.685097
vt 0.388054 0.685097
vt 0.388054 0.348610
vt 0.872769 0.348610
vt 0.872769 0.685096
vt 0.839787 0.685096
vt 0.839787 0.348610
vt 0.749579 0.004041
vt 0.749579 0.340528
vt 0.716597 0.340528
vt 0.716597 0.004041
vt 0.708515 0.348610
vt 0.708515 0.685096
vt 0.675534 0.685096
vt 0.675534 0.348610
vt 0.954896 0.004041
vt 0.954896 0.340528
vt 0.921914 0.340528
vt 0.921914 0.004041
vt 0.913832 0.004041
vt 0.913832 0.340528
vt 0.880851 0.340528
vt 0.880851 0.004041
vt 0.995959 0.004041
vt 0.995959 0.340528
vt 0.962978 0.340528
vt 0.962978 0.004041
vt 0.503188 0.348610
vt 0.503188 0.685097
vt 0.470207 0.685097
vt 0.470207 0.348610
vt 0.544252 0.348610
vt 0.544252 0.685097
vt 0.511270 0.685097
vt 0.511270 0.348610
vt 0.301528 0.621156
vt 0.278207 0.644477
vt 0.250784 0.662801
vt 0.220313 0.675422
vt 0.187965 0.681856
vt 0.154984 0.681856
vt 0.122636 0.675422
vt 0.092164 0.662800
vt 0.064741 0.644477
vt 0.041420 0.621155
vt 0.023097 0.593732
vt 0.010475 0.563262
vt 0.004041 0.530914
vt 0.004041 0.497932
vt 0.010475 0.465584
vt 0.023097 0.435113
vt 0.041420 0.407690
vt 0.064742 0.384369
vt 0.092165 0.366045
vt 0.122636 0.353424
vt 0.154984 0.346989
vt 0.187965 0.346989
vt 0.220313 0.353424
vt 0.250784 0.366045
vt 0.278207 0.384369
vt 0.301528 0.407690
vt 0.319852 0.435113
vt 0.332473 0.465584
vt 0.338908 0.497932
vt 0.338908 0.530914
vt 0.332473 0.563262
vt 0.319852 0.593733
vt 0.995959 0.348610
vt 0.995959 0.685097
vt 0.962977 0.685097
vt 0.962977 0.348610
vt 0.708515 0.004041
vt 0.708515 0.340528
vt 0.675534 0.340528
vt 0.675534 0.004041
vt 0.064741 0.041421
vt 0.092164 0.023097
vt 0.122635 0.010476
vt 0.154983 0.004041
vt 0.187965 0.004041
vt 0.220313 0.010475
vt 0.250784 0.023097
vt 0.278207 0.041420
vt 0.301529 0.064741
vt 0.319852 0.092165
vt 0.332474 0.122636
vt 0.338908 0.154983
vt 0.338908 0.187965
vt 0.332474 0.220313
vt 0.319853 0.250783
vt 0.301529 0.278206
vt 0.278207 0.301528
vt 0.250784 0.319852
vt 0.220312 0.332473
vt 0.187965 0.338908
vt 0.154983 0.338908
vt 0.122635 0.332473
vt 0.092164 0.319851
vt 0.064741 0.301528
vt 0.041420 0.278206
vt 0.023096 0.250783
vt 0.010475 0.220312
vt 0.004041 0.187965
vt 0.004041 0.154984
vt 0.010475 0.122636
vt 0.023097 0.092165
vt 0.041420 0.064742
vn 0.090600 0.000000 -0.995900
vn 0.269900 0.000000 -0.962900
vn 0.442800 0.000000 -0.896600
vn 0.604200 0.000000 -0.796900
vn 0.747600 0.000000 -0.664100
vn 0.865600 0.000000 -0.500800
vn 0.950100 0.000000 -0.312000
vn 0.994400 0.000000 -0.106000
vn 0.994400 0.000000 0.106000
vn 0.950100 0.000000 0.312000
vn 0.865600 0.000000 0.500800
vn 0.747600 0.000000 0.664100
vn 0.604200 0.000000 0.796900
vn 0.442800 0.000000 0.896600
vn 0.269900 0.000000 0.962900
vn 0.090600 0.000000 0.995900
vn -0.090600 0.000000 0.995900
vn -0.269900 0.000000 0.962900
vn -0.442800 0.000000 0.896600
vn -0.604200 0.000000 0.796900
vn -0.747600 0.000000 0.664100
vn -0.865600 0.000000 0.500800
vn -0.950100 0.000000 0.312000
vn -0.994400 0.000000 0.106000
vn -0.994400 0.000000 -0.106000
vn -0.950100 0.000000 -0.312000
vn -0.865600 0.000000 -0.500800
vn -0.747600 0.000000 -0.664100
vn -0.604200 0.000000 -0.796900
vn -0.442800 0.000000 -0.896600
vn 0.000000 1.000000 0.000000
vn -0.090600 0.000000 -0.995900
vn -0.269900 0.000000 -0.962900
vn 0.000000 -1.000000 0.000000
usemtl torso_bark
s off
f 1/1/1 2/2/1 4/3/1 3/4/1
f 3/5/2 4/6/2 6/7/2 5/8/2
f 5/9/3 6/10/3 8/11/3 7/12/3
f 7/13/4 8/14/4 10/15/4 9/16/4
f 9/17/5 10/18/5 12/19/5 11/20/5
f 11/21/6 12/22/6 14/23/6 13/24/6
f 13/25/7 14/26/7 16/27/7 15/28/7
f 15/29/8 16/30/8 18/31/8 17/32/8
f 17/33/9 18/34/9 20/35/9 19/36/9
f 19/37/10 20/38/10 22/39/10 21/40/10
f 21/41/11 22/42/11 24/43/11 23/44/11
f 23/45/12 24/46/12 26/47/12 25/48/12
f 25/49/13 26/50/13 28/51/13 27/52/13
f 27/53/14 28/54/14 30/55/14 29/56/14
f 29/57/15 30/58/15 32/59/15 31/60/15
f 31/61/16 32/62/16 34/63/16 33/64/16
f 33/65/17 34/66/17 36/67/17 35/68/17
f 35/69/18 36/70/18 38/71/18 37/72/18
f 37/73/19 38/74/19 40/75/19 39/76/19
f 39/77/20 40/78/20 42/79/20 41/80/20
f 41/81/21 42/82/21 44/83/21 43/84/21
f 43/85/22 44/86/22 46/87/22 45/88/22
f 45/89/23 46/90/23 48/91/23 47/92/23
f 47/93/24 48/94/24 50/95/24 49/96/24
f 49/97/25 50/98/25 52/99/25 51/100/25
f 51/101/26 52/102/26 54/103/26 53/104/26
f 53/105/27 54/106/27 56/107/27 55/108/27
f 55/109/28 56/110/28 58/111/28 57/112/28
f 57/113/29 58/114/29 60/115/29 59/116/29
f 59/117/30 60/118/30 62/119/30 61/120/30
f 4/121/31 2/122/31 64/123/31 62/124/31 60/125/31 58/126/31 56/127/31 54/128/31 52/129/31 50/130/31 48/131/31 46/132/31 44/133/31 42/134/31 40/135/31 38/136/31 36/137/31 34/138/31 32/139/31 30/140/31 28/141/31 26/142/31 24/143/31 22/144/31 20/145/31 18/146/31 16/147/31 14/148/31 12/149/31 10/150/31 8/151/31 6/152/31
f 63/153/32 64/154/32 2/155/32 1/156/32
f 61/157/33 62/158/33 64/159/33 63/160/33
f 1/161/34 3/162/34 5/163/34 7/164/34 9/165/34 11/166/34 13/167/34 15/168/34 17/169/34 19/170/34 21/171/34 23/172/34 25/173/34 27/174/34 29/175/34 31/176/34 33/177/34 35/178/34 37/179/34 39/180/34 41/181/34 43/182/34 45/183/34 47/184/34 49/185/34 51/186/34 53/187/34 55/188/34 57/189/34 59/190/34 61/191/34 63/192/34
